<mxfile host="app.diagrams.net" modified="2022-02-01T18:33:00.380Z" agent="5.0 (Windows NT 10.0; Win64; x64) AppleWebKit/537.36 (KHTML, like Gecko) Chrome/97.0.4692.99 Safari/537.36" etag="PWnHg6ybY_7OX7fakQCW" version="16.4.7" type="github">
  <diagram name="Page-1" id="0783ab3e-0a74-02c8-0abd-f7b4e66b4bec">
    <mxGraphModel dx="1422" dy="737" grid="1" gridSize="10" guides="1" tooltips="1" connect="1" arrows="1" fold="1" page="1" pageScale="1" pageWidth="850" pageHeight="1100" background="none" math="0" shadow="0">
      <root>
        <mxCell id="0" />
        <mxCell id="1" parent="0" />
        <mxCell id="1c1d494c118603dd-1" value="VLC Media Player" style="swimlane;html=1;childLayout=stackLayout;startSize=20;rounded=0;shadow=0;comic=0;labelBackgroundColor=none;strokeWidth=1;fontFamily=Verdana;fontSize=12;align=center;" parent="1" vertex="1">
          <mxGeometry x="40" y="20" width="750" height="990" as="geometry" />
        </mxCell>
        <mxCell id="1c1d494c118603dd-2" value="User" style="swimlane;html=1;startSize=20;" parent="1c1d494c118603dd-1" vertex="1">
          <mxGeometry y="20" width="250" height="970" as="geometry" />
        </mxCell>
        <mxCell id="1c1d494c118603dd-34" style="edgeStyle=none;rounded=0;html=1;labelBackgroundColor=none;startArrow=none;startFill=0;startSize=5;endArrow=classicThin;endFill=1;endSize=5;jettySize=auto;orthogonalLoop=1;strokeWidth=1;fontFamily=Verdana;fontSize=12;entryX=0.5;entryY=0;entryDx=0;entryDy=0;" parent="1c1d494c118603dd-2" source="1c1d494c118603dd-6" target="HgtbikXD8rjR1IWfkZl4-27" edge="1">
          <mxGeometry relative="1" as="geometry">
            <mxPoint x="136.25" y="280" as="targetPoint" />
          </mxGeometry>
        </mxCell>
        <mxCell id="1c1d494c118603dd-6" value="Registration" style="rounded=1;whiteSpace=wrap;html=1;shadow=0;comic=0;labelBackgroundColor=none;strokeWidth=1;fontFamily=Verdana;fontSize=12;align=center;arcSize=50;" parent="1c1d494c118603dd-2" vertex="1">
          <mxGeometry x="90" y="220" width="100" height="30" as="geometry" />
        </mxCell>
        <mxCell id="60571a20871a0731-4" value="" style="ellipse;whiteSpace=wrap;html=1;rounded=0;shadow=0;comic=0;labelBackgroundColor=none;strokeWidth=1;fillColor=#000000;fontFamily=Verdana;fontSize=12;align=center;" parent="1c1d494c118603dd-2" vertex="1">
          <mxGeometry x="105" y="50" width="40" height="40" as="geometry" />
        </mxCell>
        <mxCell id="60571a20871a0731-8" value="Authentication" style="rounded=1;whiteSpace=wrap;html=1;shadow=0;comic=0;labelBackgroundColor=none;strokeWidth=1;fontFamily=Verdana;fontSize=12;align=center;arcSize=50;" parent="1c1d494c118603dd-2" vertex="1">
          <mxGeometry x="75" y="130" width="100" height="30" as="geometry" />
        </mxCell>
        <mxCell id="1c1d494c118603dd-27" style="edgeStyle=orthogonalEdgeStyle;rounded=0;html=1;labelBackgroundColor=none;startArrow=none;startFill=0;startSize=5;endArrow=classicThin;endFill=1;endSize=5;jettySize=auto;orthogonalLoop=1;strokeWidth=1;fontFamily=Verdana;fontSize=12" parent="1c1d494c118603dd-2" source="60571a20871a0731-4" target="60571a20871a0731-8" edge="1">
          <mxGeometry relative="1" as="geometry" />
        </mxCell>
        <mxCell id="HgtbikXD8rjR1IWfkZl4-27" value="Enter Valid&amp;nbsp; Details" style="rounded=1;whiteSpace=wrap;html=1;shadow=0;comic=0;labelBackgroundColor=none;strokeWidth=1;fontFamily=Verdana;fontSize=12;align=center;arcSize=50;" vertex="1" parent="1c1d494c118603dd-2">
          <mxGeometry x="90" y="280" width="100" height="30" as="geometry" />
        </mxCell>
        <mxCell id="HgtbikXD8rjR1IWfkZl4-40" value="" style="edgeStyle=orthogonalEdgeStyle;rounded=0;orthogonalLoop=1;jettySize=auto;html=1;" edge="1" parent="1c1d494c118603dd-2" source="HgtbikXD8rjR1IWfkZl4-34" target="HgtbikXD8rjR1IWfkZl4-39">
          <mxGeometry relative="1" as="geometry" />
        </mxCell>
        <mxCell id="HgtbikXD8rjR1IWfkZl4-34" value="Streaming Accessed" style="rounded=1;whiteSpace=wrap;html=1;shadow=0;comic=0;labelBackgroundColor=none;strokeWidth=1;fontFamily=Verdana;fontSize=12;align=center;arcSize=50;" vertex="1" parent="1c1d494c118603dd-2">
          <mxGeometry x="90" y="420" width="100" height="30" as="geometry" />
        </mxCell>
        <mxCell id="HgtbikXD8rjR1IWfkZl4-39" value="Select Video" style="rounded=1;whiteSpace=wrap;html=1;shadow=0;comic=0;labelBackgroundColor=none;strokeWidth=1;fontFamily=Verdana;fontSize=12;align=center;arcSize=50;" vertex="1" parent="1c1d494c118603dd-2">
          <mxGeometry x="90" y="490" width="100" height="30" as="geometry" />
        </mxCell>
        <mxCell id="60571a20871a0731-5" value="" style="shape=mxgraph.bpmn.shape;html=1;verticalLabelPosition=bottom;labelBackgroundColor=#ffffff;verticalAlign=top;perimeter=ellipsePerimeter;outline=end;symbol=terminate;rounded=0;shadow=0;comic=0;strokeWidth=1;fontFamily=Verdana;fontSize=12;align=center;" parent="1c1d494c118603dd-2" vertex="1">
          <mxGeometry x="120" y="790" width="40" height="40" as="geometry" />
        </mxCell>
        <mxCell id="HgtbikXD8rjR1IWfkZl4-49" value="Play Video" style="rounded=1;whiteSpace=wrap;html=1;shadow=0;comic=0;labelBackgroundColor=none;strokeWidth=1;fontFamily=Verdana;fontSize=12;align=center;arcSize=50;" vertex="1" parent="1c1d494c118603dd-2">
          <mxGeometry x="100" y="710" width="100" height="30" as="geometry" />
        </mxCell>
        <mxCell id="HgtbikXD8rjR1IWfkZl4-60" value="&lt;font style=&quot;font-size: 14px&quot;&gt;Start&lt;/font&gt;" style="text;strokeColor=none;fillColor=none;html=1;fontSize=24;fontStyle=1;verticalAlign=middle;align=center;" vertex="1" parent="1c1d494c118603dd-2">
          <mxGeometry x="75" y="20" width="100" height="40" as="geometry" />
        </mxCell>
        <mxCell id="HgtbikXD8rjR1IWfkZl4-61" value="&lt;font style=&quot;font-size: 14px&quot;&gt;End&lt;/font&gt;" style="text;strokeColor=none;fillColor=none;html=1;fontSize=24;fontStyle=1;verticalAlign=middle;align=center;" vertex="1" parent="1c1d494c118603dd-2">
          <mxGeometry x="90" y="820" width="100" height="40" as="geometry" />
        </mxCell>
        <mxCell id="1c1d494c118603dd-3" value="Application" style="swimlane;html=1;startSize=20;" parent="1c1d494c118603dd-1" vertex="1">
          <mxGeometry x="250" y="20" width="250" height="970" as="geometry" />
        </mxCell>
        <mxCell id="1c1d494c118603dd-12" value="" style="whiteSpace=wrap;html=1;rounded=0;shadow=0;comic=0;labelBackgroundColor=none;strokeWidth=1;fillColor=#000000;fontFamily=Verdana;fontSize=12;align=center;rotation=0;" parent="1c1d494c118603dd-3" vertex="1">
          <mxGeometry x="40.5" y="390" width="147" height="10" as="geometry" />
        </mxCell>
        <mxCell id="HgtbikXD8rjR1IWfkZl4-1" value="Already Registered" style="rhombus;whiteSpace=wrap;html=1;" vertex="1" parent="1c1d494c118603dd-3">
          <mxGeometry x="64" y="160" width="80" height="80" as="geometry" />
        </mxCell>
        <mxCell id="HgtbikXD8rjR1IWfkZl4-2" value="Yes" style="text;html=1;strokeColor=none;fillColor=none;align=center;verticalAlign=middle;whiteSpace=wrap;rounded=0;" vertex="1" parent="1c1d494c118603dd-3">
          <mxGeometry x="164" y="170" width="60" height="30" as="geometry" />
        </mxCell>
        <mxCell id="HgtbikXD8rjR1IWfkZl4-32" value="[Authenticated]" style="text;strokeColor=none;fillColor=none;align=left;verticalAlign=top;spacingLeft=4;spacingRight=4;overflow=hidden;rotatable=0;points=[[0,0.5],[1,0.5]];portConstraint=eastwest;" vertex="1" parent="1c1d494c118603dd-3">
          <mxGeometry y="422" width="100" height="26" as="geometry" />
        </mxCell>
        <mxCell id="HgtbikXD8rjR1IWfkZl4-33" value="" style="edgeStyle=none;rounded=0;html=1;labelBackgroundColor=none;startArrow=none;startFill=0;startSize=5;endArrow=none;endFill=1;endSize=5;jettySize=auto;orthogonalLoop=1;strokeWidth=1;fontFamily=Verdana;fontSize=12;exitX=0.439;exitY=1.1;exitDx=0;exitDy=0;exitPerimeter=0;" edge="1" parent="1c1d494c118603dd-3" source="1c1d494c118603dd-12" target="HgtbikXD8rjR1IWfkZl4-32">
          <mxGeometry relative="1" as="geometry">
            <mxPoint x="400" y="435" as="sourcePoint" />
            <mxPoint x="190" y="480" as="targetPoint" />
            <Array as="points">
              <mxPoint x="105" y="440" />
            </Array>
          </mxGeometry>
        </mxCell>
        <mxCell id="HgtbikXD8rjR1IWfkZl4-42" value="Select Mode" style="rhombus;whiteSpace=wrap;html=1;" vertex="1" parent="1c1d494c118603dd-3">
          <mxGeometry x="64" y="465" width="80" height="80" as="geometry" />
        </mxCell>
        <mxCell id="HgtbikXD8rjR1IWfkZl4-44" value="Online Streaming" style="text;html=1;strokeColor=none;fillColor=none;align=center;verticalAlign=middle;whiteSpace=wrap;rounded=0;" vertex="1" parent="1c1d494c118603dd-3">
          <mxGeometry x="164" y="470" width="60" height="30" as="geometry" />
        </mxCell>
        <mxCell id="HgtbikXD8rjR1IWfkZl4-46" value="Select Video" style="rounded=1;whiteSpace=wrap;html=1;shadow=0;comic=0;labelBackgroundColor=none;strokeWidth=1;fontFamily=Verdana;fontSize=12;align=center;arcSize=50;" vertex="1" parent="1c1d494c118603dd-3">
          <mxGeometry x="54" y="580" width="100" height="30" as="geometry" />
        </mxCell>
        <mxCell id="HgtbikXD8rjR1IWfkZl4-47" value="Offline Streaming" style="text;html=1;strokeColor=none;fillColor=none;align=center;verticalAlign=middle;whiteSpace=wrap;rounded=0;" vertex="1" parent="1c1d494c118603dd-3">
          <mxGeometry x="110" y="540" width="60" height="30" as="geometry" />
        </mxCell>
        <mxCell id="HgtbikXD8rjR1IWfkZl4-55" value="" style="whiteSpace=wrap;html=1;rounded=0;shadow=0;comic=0;labelBackgroundColor=none;strokeWidth=1;fillColor=#000000;fontFamily=Verdana;fontSize=12;align=center;rotation=0;" vertex="1" parent="1c1d494c118603dd-3">
          <mxGeometry x="54" y="660" width="147" height="10" as="geometry" />
        </mxCell>
        <mxCell id="HgtbikXD8rjR1IWfkZl4-58" value="Video Controls" style="rounded=1;whiteSpace=wrap;html=1;shadow=0;comic=0;labelBackgroundColor=none;strokeWidth=1;fontFamily=Verdana;fontSize=12;align=center;arcSize=50;" vertex="1" parent="1c1d494c118603dd-3">
          <mxGeometry x="64" y="710" width="100" height="30" as="geometry" />
        </mxCell>
        <mxCell id="1c1d494c118603dd-4" value="Serevr" style="swimlane;html=1;startSize=20;" parent="1c1d494c118603dd-1" vertex="1">
          <mxGeometry x="500" y="20" width="250" height="970" as="geometry" />
        </mxCell>
        <mxCell id="1c1d494c118603dd-5" value="Login" style="rounded=1;whiteSpace=wrap;html=1;shadow=0;comic=0;labelBackgroundColor=none;strokeWidth=1;fontFamily=Verdana;fontSize=12;align=center;arcSize=50;" parent="1c1d494c118603dd-4" vertex="1">
          <mxGeometry x="70" y="220" width="100" height="30" as="geometry" />
        </mxCell>
        <mxCell id="1c1d494c118603dd-8" value="Select Video" style="rounded=1;whiteSpace=wrap;html=1;shadow=0;comic=0;labelBackgroundColor=none;strokeWidth=1;fontFamily=Verdana;fontSize=12;align=center;arcSize=50;" parent="1c1d494c118603dd-4" vertex="1">
          <mxGeometry x="90" y="490" width="100" height="30" as="geometry" />
        </mxCell>
        <mxCell id="HgtbikXD8rjR1IWfkZl4-31" value="Register" style="rounded=1;whiteSpace=wrap;html=1;shadow=0;comic=0;labelBackgroundColor=none;strokeWidth=1;fontFamily=Verdana;fontSize=12;align=center;arcSize=50;" vertex="1" parent="1c1d494c118603dd-4">
          <mxGeometry x="70" y="280" width="100" height="30" as="geometry" />
        </mxCell>
        <mxCell id="1c1d494c118603dd-28" style="edgeStyle=orthogonalEdgeStyle;rounded=0;html=1;entryX=0.5;entryY=0;labelBackgroundColor=none;startArrow=none;startFill=0;startSize=5;endArrow=classicThin;endFill=1;endSize=5;jettySize=auto;orthogonalLoop=1;strokeWidth=1;fontFamily=Verdana;fontSize=12" parent="1c1d494c118603dd-1" source="60571a20871a0731-8" edge="1">
          <mxGeometry relative="1" as="geometry">
            <Array as="points">
              <mxPoint x="354" y="145" />
            </Array>
            <mxPoint x="353.5" y="180" as="targetPoint" />
          </mxGeometry>
        </mxCell>
        <mxCell id="1c1d494c118603dd-29" style="edgeStyle=orthogonalEdgeStyle;rounded=0;html=1;exitX=0.954;exitY=0.5;labelBackgroundColor=none;startArrow=none;startFill=0;startSize=5;endArrow=classicThin;endFill=1;endSize=5;jettySize=auto;orthogonalLoop=1;strokeWidth=1;fontFamily=Verdana;fontSize=12;exitDx=0;exitDy=0;exitPerimeter=0;" parent="1c1d494c118603dd-1" source="HgtbikXD8rjR1IWfkZl4-1" target="1c1d494c118603dd-5" edge="1">
          <mxGeometry relative="1" as="geometry">
            <Array as="points">
              <mxPoint x="620" y="220" />
            </Array>
            <mxPoint x="390.25" y="190" as="sourcePoint" />
          </mxGeometry>
        </mxCell>
        <mxCell id="1c1d494c118603dd-30" style="edgeStyle=orthogonalEdgeStyle;rounded=0;html=1;exitX=0;exitY=0.5;entryX=0.5;entryY=0;labelBackgroundColor=none;startArrow=none;startFill=0;startSize=5;endArrow=classicThin;endFill=1;endSize=5;jettySize=auto;orthogonalLoop=1;strokeWidth=1;fontFamily=Verdana;fontSize=12;exitDx=0;exitDy=0;" parent="1c1d494c118603dd-1" source="HgtbikXD8rjR1IWfkZl4-1" target="1c1d494c118603dd-6" edge="1">
          <mxGeometry relative="1" as="geometry">
            <Array as="points">
              <mxPoint x="140" y="220" />
            </Array>
            <mxPoint x="316.75" y="190" as="sourcePoint" />
          </mxGeometry>
        </mxCell>
        <mxCell id="1c1d494c118603dd-31" style="edgeStyle=orthogonalEdgeStyle;rounded=0;html=1;entryX=0.75;entryY=0;labelBackgroundColor=none;startArrow=none;startFill=0;startSize=5;endArrow=classicThin;endFill=1;endSize=5;jettySize=auto;orthogonalLoop=1;strokeWidth=1;fontFamily=Verdana;fontSize=12;exitX=1;exitY=0.5;exitDx=0;exitDy=0;" parent="1c1d494c118603dd-1" source="1c1d494c118603dd-5" target="1c1d494c118603dd-12" edge="1">
          <mxGeometry relative="1" as="geometry">
            <mxPoint x="465" y="395" as="sourcePoint" />
            <Array as="points">
              <mxPoint x="690" y="255" />
              <mxPoint x="690" y="390" />
              <mxPoint x="400" y="390" />
            </Array>
          </mxGeometry>
        </mxCell>
        <mxCell id="1c1d494c118603dd-32" style="edgeStyle=orthogonalEdgeStyle;rounded=0;html=1;entryX=0.25;entryY=0;labelBackgroundColor=none;startArrow=none;startFill=0;startSize=5;endArrow=classicThin;endFill=1;endSize=5;jettySize=auto;orthogonalLoop=1;strokeWidth=1;fontFamily=Verdana;fontSize=12;exitX=0.5;exitY=1;exitDx=0;exitDy=0;" parent="1c1d494c118603dd-1" source="HgtbikXD8rjR1IWfkZl4-31" target="1c1d494c118603dd-12" edge="1">
          <mxGeometry relative="1" as="geometry">
            <mxPoint x="280" y="400" as="sourcePoint" />
          </mxGeometry>
        </mxCell>
        <mxCell id="1c1d494c118603dd-39" style="edgeStyle=none;rounded=0;html=1;labelBackgroundColor=none;startArrow=none;startFill=0;startSize=5;endArrow=classicThin;endFill=1;endSize=5;jettySize=auto;orthogonalLoop=1;strokeWidth=1;fontFamily=Verdana;fontSize=12;entryX=1;entryY=0.5;entryDx=0;entryDy=0;exitX=0;exitY=0.5;exitDx=0;exitDy=0;" parent="1c1d494c118603dd-1" source="HgtbikXD8rjR1IWfkZl4-32" target="HgtbikXD8rjR1IWfkZl4-34" edge="1">
          <mxGeometry relative="1" as="geometry">
            <mxPoint x="360" y="415" as="sourcePoint" />
            <mxPoint x="180" y="460" as="targetPoint" />
            <Array as="points">
              <mxPoint x="230" y="455" />
            </Array>
          </mxGeometry>
        </mxCell>
        <mxCell id="HgtbikXD8rjR1IWfkZl4-41" style="edgeStyle=orthogonalEdgeStyle;rounded=0;orthogonalLoop=1;jettySize=auto;html=1;" edge="1" parent="1c1d494c118603dd-1" source="HgtbikXD8rjR1IWfkZl4-39" target="HgtbikXD8rjR1IWfkZl4-42">
          <mxGeometry relative="1" as="geometry">
            <mxPoint x="320" y="525" as="targetPoint" />
          </mxGeometry>
        </mxCell>
        <mxCell id="HgtbikXD8rjR1IWfkZl4-56" style="edgeStyle=orthogonalEdgeStyle;rounded=0;orthogonalLoop=1;jettySize=auto;html=1;" edge="1" parent="1c1d494c118603dd-1" source="HgtbikXD8rjR1IWfkZl4-55" target="HgtbikXD8rjR1IWfkZl4-49">
          <mxGeometry relative="1" as="geometry">
            <Array as="points">
              <mxPoint x="378" y="710" />
              <mxPoint x="150" y="710" />
            </Array>
          </mxGeometry>
        </mxCell>
        <mxCell id="HgtbikXD8rjR1IWfkZl4-59" style="edgeStyle=orthogonalEdgeStyle;rounded=0;orthogonalLoop=1;jettySize=auto;html=1;entryX=1;entryY=0.5;entryDx=0;entryDy=0;" edge="1" parent="1c1d494c118603dd-1" source="HgtbikXD8rjR1IWfkZl4-58" target="60571a20871a0731-5">
          <mxGeometry relative="1" as="geometry">
            <Array as="points">
              <mxPoint x="364" y="830" />
            </Array>
          </mxGeometry>
        </mxCell>
        <mxCell id="HgtbikXD8rjR1IWfkZl4-30" style="edgeStyle=orthogonalEdgeStyle;rounded=0;orthogonalLoop=1;jettySize=auto;html=1;" edge="1" parent="1" source="HgtbikXD8rjR1IWfkZl4-27">
          <mxGeometry relative="1" as="geometry">
            <mxPoint x="610" y="335" as="targetPoint" />
          </mxGeometry>
        </mxCell>
        <mxCell id="HgtbikXD8rjR1IWfkZl4-43" style="edgeStyle=orthogonalEdgeStyle;rounded=0;orthogonalLoop=1;jettySize=auto;html=1;" edge="1" parent="1" source="HgtbikXD8rjR1IWfkZl4-42">
          <mxGeometry relative="1" as="geometry">
            <mxPoint x="630" y="545" as="targetPoint" />
          </mxGeometry>
        </mxCell>
        <mxCell id="HgtbikXD8rjR1IWfkZl4-45" style="edgeStyle=orthogonalEdgeStyle;rounded=0;orthogonalLoop=1;jettySize=auto;html=1;" edge="1" parent="1" source="HgtbikXD8rjR1IWfkZl4-42">
          <mxGeometry relative="1" as="geometry">
            <mxPoint x="394" y="620" as="targetPoint" />
          </mxGeometry>
        </mxCell>
        <mxCell id="HgtbikXD8rjR1IWfkZl4-48" style="edgeStyle=orthogonalEdgeStyle;rounded=0;orthogonalLoop=1;jettySize=auto;html=1;" edge="1" parent="1" source="1c1d494c118603dd-8">
          <mxGeometry relative="1" as="geometry">
            <mxPoint x="450" y="700" as="targetPoint" />
            <Array as="points">
              <mxPoint x="680" y="670" />
              <mxPoint x="450" y="670" />
            </Array>
          </mxGeometry>
        </mxCell>
        <mxCell id="HgtbikXD8rjR1IWfkZl4-50" style="edgeStyle=orthogonalEdgeStyle;rounded=0;orthogonalLoop=1;jettySize=auto;html=1;" edge="1" parent="1" source="HgtbikXD8rjR1IWfkZl4-46">
          <mxGeometry relative="1" as="geometry">
            <mxPoint x="394" y="700" as="targetPoint" />
          </mxGeometry>
        </mxCell>
        <mxCell id="HgtbikXD8rjR1IWfkZl4-57" style="edgeStyle=orthogonalEdgeStyle;rounded=0;orthogonalLoop=1;jettySize=auto;html=1;" edge="1" parent="1" source="HgtbikXD8rjR1IWfkZl4-49">
          <mxGeometry relative="1" as="geometry">
            <mxPoint x="350" y="765" as="targetPoint" />
          </mxGeometry>
        </mxCell>
      </root>
    </mxGraphModel>
  </diagram>
</mxfile>
